<svg xmlns="http://www.w3.org/2000/svg" width="240" height="240" fill="none"><rect width="240" height="240" fill="#0C192B" rx="27"/><path fill="#E6C220" d="M118.2 19.5c1.1-.7 2.5-.7 3.6 0l80.6 44.3a3.7 3.7 0 0 1 0 6.5l-80.6 44.3c-1.1.7-2.5.7-3.6 0L37.6 70.3a3.7 3.7 0 0 1 0-6.5l80.6-44.3Z"/><path fill="#fff" d="M209.6 80.7c2.5-1.3 5.5.5 5.5 3.3v88.6c0 1.3-.7 2.6-2 3.2L132 220.5a3.8 3.8 0 0 1-5.6-3.3v-88.5c0-1.4.7-2.7 2-3.3l81.3-44.7Z"/><path fill="#FEDA15" d="M111.8 125.4 30.4 80.7A3.8 3.8 0 0 0 25 84v88.6c0 1.3.7 2.6 2 3.2l81.2 44.7a3.8 3.8 0 0 0 5.6-3.3v-88.5c0-1.4-.7-2.7-2-3.3ZM59 153.6l-19-10v-.1c.4-6 5-8.6 10.3-5.8 5.3 2.8 9.2 9.8 8.7 15.8v.1ZM89 171l-19-10v-.1c.4-6 5-8.6 10.3-5.8 5.3 2.8 9.2 9.8 8.7 15.8v.1Z"/><path fill="#7EBAE4" fill-rule="evenodd" d="m163 141-18.8 47.5-4.4-6.1 5-12.8-10 5.5-2.2-3.1 2.2-5.6 14.4-7.7 5.1-13 8.7-4.7Zm1.5 29 37.6-20.4-4.3 11-10 5.4 5 7.3-2.2 5.4-4.4 2.4-7.1-10.4-10.3 5.6-4.3-6.3Zm21.9-28.2-18.9-27.1 8.7-4.8 5 7.3 5-12.8 4.4-2.3 2.2 3.2-7.2 18 5 7.5-4.2 11Z" clip-rule="evenodd"/><path fill="#5277C3" fill-rule="evenodd" d="m156.2 160 18.8 27.2-8.6 4.7-5-7.3-5 12.8-4.4 2.3-2.2-3.2 7.2-18-5.1-7.5 4.3-11Zm21.9-28.3-37.7 20.4 4.3-10.9 10-5.4-5-7.3 2.2-5.5 4.4-2.3 7.1 10.3 10.3-5.5 4.4 6.2Zm1.4 29.1 18.9-47.5 4.4 6.1-5.1 12.8 10-5.4 2.2 3-2.2 5.6-14.3 7.7-5.2 13-8.7 4.7Z" clip-rule="evenodd"/></svg>